<svg width="84" height="49" viewBox="0 0 84 49" fill="none" xmlns="http://www.w3.org/2000/svg">
<path d="M40.1364 1.45454V48H30.5909L12.0682 21.1364H11.7727V48H0.522727V1.45454H10.2045L28.5227 28.2727H28.9091V1.45454H40.1364Z" fill="black"/>
<path d="M72.3693 15.4091C72.2178 13.7424 71.5436 12.447 70.3466 11.5227C69.1648 10.5833 67.4754 10.1136 65.2784 10.1136C63.8239 10.1136 62.6117 10.303 61.642 10.6818C60.6723 11.0606 59.9451 11.5833 59.4602 12.25C58.9754 12.9015 58.7254 13.6515 58.7102 14.5C58.6799 15.197 58.8163 15.8106 59.1193 16.3409C59.4375 16.8712 59.892 17.3409 60.483 17.75C61.089 18.1439 61.8163 18.4924 62.6648 18.7955C63.5133 19.0985 64.4678 19.3636 65.5284 19.5909L69.5284 20.5C71.8314 21 73.8617 21.6667 75.6193 22.5C77.392 23.3333 78.8769 24.3258 80.0739 25.4773C81.286 26.6288 82.2027 27.9545 82.8239 29.4545C83.4451 30.9545 83.7633 32.6364 83.7784 34.5C83.7633 37.4394 83.0208 39.9621 81.5511 42.0682C80.0814 44.1742 77.9678 45.7879 75.2102 46.9091C72.4678 48.0303 69.1572 48.5909 65.2784 48.5909C61.3845 48.5909 57.9905 48.0076 55.0966 46.8409C52.2027 45.6742 49.9527 43.9015 48.3466 41.5227C46.7405 39.1439 45.9148 36.1364 45.8693 32.5H56.642C56.733 34 57.1345 35.25 57.8466 36.25C58.5587 37.25 59.536 38.0076 60.7784 38.5227C62.036 39.0379 63.4905 39.2955 65.142 39.2955C66.6572 39.2955 67.9451 39.0909 69.0057 38.6818C70.0814 38.2727 70.9072 37.7045 71.483 36.9773C72.0587 36.25 72.3542 35.4167 72.3693 34.4773C72.3542 33.5985 72.0814 32.8485 71.5511 32.2273C71.0208 31.5909 70.2027 31.0455 69.0966 30.5909C68.0057 30.1212 66.6117 29.6894 64.9148 29.2955L60.0511 28.1591C56.0208 27.2348 52.8466 25.7424 50.5284 23.6818C48.2102 21.6061 47.0587 18.803 47.0739 15.2727C47.0587 12.3939 47.8314 9.87121 49.392 7.70454C50.9527 5.53788 53.1117 3.84848 55.8693 2.63636C58.6269 1.42424 61.7708 0.81818 65.3011 0.81818C68.9072 0.81818 72.036 1.43182 74.6875 2.65909C77.3542 3.87121 79.4223 5.57576 80.892 7.77273C82.3617 9.9697 83.1117 12.5151 83.142 15.4091H72.3693Z" fill="#E11D48"/>
</svg>
