<svg width="424" height="49" viewBox="0 0 424 49" fill="none" xmlns="http://www.w3.org/2000/svg">
<path d="M40.1364 1.45454V48H30.5909L12.0682 21.1364H11.7727V48H0.522727V1.45454H10.2045L28.5227 28.2727H28.9091V1.45454H40.1364ZM57.0511 48.5909C54.8239 48.5909 52.8466 48.2197 51.1193 47.4773C49.4072 46.7197 48.0511 45.5833 47.0511 44.0682C46.0663 42.5379 45.5739 40.6212 45.5739 38.3182C45.5739 36.3788 45.9148 34.7424 46.5966 33.4091C47.2784 32.0758 48.2178 30.9924 49.4148 30.1591C50.6117 29.3258 51.9905 28.697 53.5511 28.2727C55.1117 27.8333 56.7784 27.5379 58.5511 27.3864C60.536 27.2045 62.1345 27.0152 63.3466 26.8182C64.5587 26.6061 65.4375 26.3106 65.983 25.9318C66.5436 25.5379 66.8239 24.9848 66.8239 24.2727V24.1591C66.8239 22.9924 66.4223 22.0909 65.6193 21.4545C64.8163 20.8182 63.733 20.5 62.3693 20.5C60.8996 20.5 59.7178 20.8182 58.8239 21.4545C57.9299 22.0909 57.3617 22.9697 57.1193 24.0909L46.8693 23.7273C47.1723 21.6061 47.9527 19.7121 49.2102 18.0455C50.483 16.3636 52.2254 15.0455 54.4375 14.0909C56.6648 13.1212 59.339 12.6364 62.4602 12.6364C64.6875 12.6364 66.7405 12.9015 68.6193 13.4318C70.4981 13.947 72.1345 14.7045 73.5284 15.7045C74.9223 16.6894 75.9981 17.9015 76.7557 19.3409C77.5284 20.7803 77.9148 22.4242 77.9148 24.2727V48H67.4602V43.1364H67.1875C66.5663 44.3182 65.7708 45.3182 64.8011 46.1364C63.8466 46.9545 62.7178 47.5682 61.4148 47.9773C60.1269 48.3864 58.6723 48.5909 57.0511 48.5909ZM60.483 41.3182C61.6799 41.3182 62.7557 41.0758 63.7102 40.5909C64.6799 40.1061 65.4527 39.4394 66.0284 38.5909C66.6042 37.7273 66.892 36.7273 66.892 35.5909V32.2727C66.5739 32.4394 66.1875 32.5909 65.733 32.7273C65.2936 32.8636 64.8087 32.9924 64.2784 33.1136C63.7481 33.2348 63.2027 33.3409 62.642 33.4318C62.0814 33.5227 61.5436 33.6061 61.0284 33.6818C59.983 33.8485 59.089 34.1061 58.3466 34.4545C57.6193 34.803 57.0587 35.2576 56.6648 35.8182C56.286 36.3636 56.0966 37.0152 56.0966 37.7727C56.0966 38.9242 56.5057 39.803 57.3239 40.4091C58.1572 41.0152 59.2102 41.3182 60.483 41.3182ZM84.7102 48V13.0909H95.2784V19.5H95.6648C96.392 17.3788 97.6193 15.7045 99.3466 14.4773C101.074 13.25 103.134 12.6364 105.528 12.6364C107.953 12.6364 110.028 13.2576 111.756 14.5C113.483 15.7424 114.581 17.4091 115.051 19.5H115.415C116.066 17.4242 117.339 15.7652 119.233 14.5227C121.127 13.2652 123.362 12.6364 125.938 12.6364C129.241 12.6364 131.922 13.697 133.983 15.8182C136.044 17.9242 137.074 20.8182 137.074 24.5V48H125.96V27.0455C125.96 25.303 125.513 23.9773 124.619 23.0682C123.725 22.1439 122.566 21.6818 121.142 21.6818C119.612 21.6818 118.407 22.1818 117.528 23.1818C116.665 24.1667 116.233 25.4924 116.233 27.1591V48H105.551V26.9318C105.551 25.3106 105.112 24.0303 104.233 23.0909C103.354 22.1515 102.195 21.6818 100.756 21.6818C99.786 21.6818 98.9299 21.9167 98.1875 22.3864C97.4451 22.8409 96.8617 23.4924 96.4375 24.3409C96.0284 25.1894 95.8239 26.1894 95.8239 27.3409V48H84.7102ZM160.278 48.6591C156.627 48.6591 153.475 47.9394 150.824 46.5C148.188 45.0455 146.157 42.9773 144.733 40.2955C143.324 37.5985 142.619 34.3939 142.619 30.6818C142.619 27.0758 143.331 23.9242 144.756 21.2273C146.18 18.5152 148.188 16.4091 150.778 14.9091C153.369 13.3939 156.422 12.6364 159.938 12.6364C162.422 12.6364 164.695 13.0227 166.756 13.7955C168.816 14.5682 170.597 15.7121 172.097 17.2273C173.597 18.7424 174.763 20.6136 175.597 22.8409C176.43 25.053 176.847 27.5909 176.847 30.4545V33.2273H146.506V26.7727H166.506C166.491 25.5909 166.21 24.5379 165.665 23.6136C165.119 22.6894 164.369 21.9697 163.415 21.4545C162.475 20.9242 161.392 20.6591 160.165 20.6591C158.922 20.6591 157.809 20.9394 156.824 21.5C155.839 22.0455 155.059 22.7955 154.483 23.75C153.907 24.6894 153.604 25.7576 153.574 26.9545V33.5227C153.574 34.947 153.854 36.197 154.415 37.2727C154.975 38.3333 155.771 39.1591 156.801 39.75C157.831 40.3409 159.059 40.6364 160.483 40.6364C161.468 40.6364 162.362 40.5 163.165 40.2273C163.968 39.9545 164.657 39.553 165.233 39.0227C165.809 38.4924 166.241 37.8409 166.528 37.0682L176.733 37.3636C176.309 39.6515 175.377 41.6439 173.938 43.3409C172.513 45.0227 170.642 46.3333 168.324 47.2727C166.006 48.197 163.324 48.6591 160.278 48.6591Z" fill="black"/>
<path d="M207.682 15.4091C207.53 13.7424 206.856 12.447 205.659 11.5227C204.477 10.5833 202.788 10.1136 200.591 10.1136C199.136 10.1136 197.924 10.303 196.955 10.6818C195.985 11.0606 195.258 11.5833 194.773 12.25C194.288 12.9015 194.038 13.6515 194.023 14.5C193.992 15.197 194.129 15.8106 194.432 16.3409C194.75 16.8712 195.205 17.3409 195.795 17.75C196.402 18.1439 197.129 18.4924 197.977 18.7955C198.826 19.0985 199.78 19.3636 200.841 19.5909L204.841 20.5C207.144 21 209.174 21.6667 210.932 22.5C212.705 23.3333 214.189 24.3258 215.386 25.4773C216.598 26.6288 217.515 27.9545 218.136 29.4545C218.758 30.9545 219.076 32.6364 219.091 34.5C219.076 37.4394 218.333 39.9621 216.864 42.0682C215.394 44.1742 213.28 45.7879 210.523 46.9091C207.78 48.0303 204.47 48.5909 200.591 48.5909C196.697 48.5909 193.303 48.0076 190.409 46.8409C187.515 45.6742 185.265 43.9015 183.659 41.5227C182.053 39.1439 181.227 36.1364 181.182 32.5H191.955C192.045 34 192.447 35.25 193.159 36.25C193.871 37.25 194.848 38.0076 196.091 38.5227C197.348 39.0379 198.803 39.2955 200.455 39.2955C201.97 39.2955 203.258 39.0909 204.318 38.6818C205.394 38.2727 206.22 37.7045 206.795 36.9773C207.371 36.25 207.667 35.4167 207.682 34.4773C207.667 33.5985 207.394 32.8485 206.864 32.2273C206.333 31.5909 205.515 31.0455 204.409 30.5909C203.318 30.1212 201.924 29.6894 200.227 29.2955L195.364 28.1591C191.333 27.2348 188.159 25.7424 185.841 23.6818C183.523 21.6061 182.371 18.803 182.386 15.2727C182.371 12.3939 183.144 9.87121 184.705 7.70454C186.265 5.53788 188.424 3.84848 191.182 2.63636C193.939 1.42424 197.083 0.81818 200.614 0.81818C204.22 0.81818 207.348 1.43182 210 2.65909C212.667 3.87121 214.735 5.57576 216.205 7.77273C217.674 9.9697 218.424 12.5151 218.455 15.4091H207.682ZM241.068 48.6591C237.386 48.6591 234.227 47.9015 231.591 46.3864C228.97 44.8712 226.955 42.7652 225.545 40.0682C224.136 37.3561 223.432 34.2197 223.432 30.6591C223.432 27.0833 224.136 23.947 225.545 21.25C226.97 18.5379 228.992 16.4242 231.614 14.9091C234.25 13.3939 237.394 12.6364 241.045 12.6364C244.273 12.6364 247.083 13.2197 249.477 14.3864C251.886 15.553 253.765 17.2045 255.114 19.3409C256.477 21.4621 257.197 23.9545 257.273 26.8182H246.886C246.674 25.0303 246.068 23.6288 245.068 22.6136C244.083 21.5985 242.795 21.0909 241.205 21.0909C239.917 21.0909 238.788 21.4545 237.818 22.1818C236.848 22.8939 236.091 23.9545 235.545 25.3636C235.015 26.7576 234.75 28.4848 234.75 30.5455C234.75 32.6061 235.015 34.3485 235.545 35.7727C236.091 37.1818 236.848 38.25 237.818 38.9773C238.788 39.6894 239.917 40.0455 241.205 40.0455C242.235 40.0455 243.144 39.8258 243.932 39.3864C244.735 38.947 245.394 38.303 245.909 37.4545C246.424 36.5909 246.75 35.5455 246.886 34.3182H257.273C257.167 37.197 256.447 39.7121 255.114 41.8636C253.795 44.0152 251.939 45.6894 249.545 46.8864C247.167 48.0682 244.341 48.6591 241.068 48.6591ZM262.96 48V13.0909H273.756V19.4545H274.119C274.756 17.1515 275.794 15.4394 277.233 14.3182C278.672 13.1818 280.347 12.6136 282.256 12.6136C282.771 12.6136 283.301 12.6515 283.847 12.7273C284.392 12.7879 284.9 12.8864 285.369 13.0227V22.6818C284.839 22.5 284.142 22.3561 283.278 22.25C282.43 22.1439 281.672 22.0909 281.006 22.0909C279.688 22.0909 278.498 22.3864 277.438 22.9773C276.392 23.553 275.566 24.3636 274.96 25.4091C274.369 26.4394 274.074 27.6515 274.074 29.0455V48H262.96ZM298.426 48.5909C296.199 48.5909 294.222 48.2197 292.494 47.4773C290.782 46.7197 289.426 45.5833 288.426 44.0682C287.441 42.5379 286.949 40.6212 286.949 38.3182C286.949 36.3788 287.29 34.7424 287.972 33.4091C288.653 32.0758 289.593 30.9924 290.79 30.1591C291.987 29.3258 293.366 28.697 294.926 28.2727C296.487 27.8333 298.153 27.5379 299.926 27.3864C301.911 27.2045 303.509 27.0152 304.722 26.8182C305.934 26.6061 306.813 26.3106 307.358 25.9318C307.919 25.5379 308.199 24.9848 308.199 24.2727V24.1591C308.199 22.9924 307.797 22.0909 306.994 21.4545C306.191 20.8182 305.108 20.5 303.744 20.5C302.275 20.5 301.093 20.8182 300.199 21.4545C299.305 22.0909 298.737 22.9697 298.494 24.0909L288.244 23.7273C288.547 21.6061 289.328 19.7121 290.585 18.0455C291.858 16.3636 293.6 15.0455 295.812 14.0909C298.04 13.1212 300.714 12.6364 303.835 12.6364C306.063 12.6364 308.116 12.9015 309.994 13.4318C311.873 13.947 313.509 14.7045 314.903 15.7045C316.297 16.6894 317.373 17.9015 318.131 19.3409C318.903 20.7803 319.29 22.4242 319.29 24.2727V48H308.835V43.1364H308.562C307.941 44.3182 307.146 45.3182 306.176 46.1364C305.222 46.9545 304.093 47.5682 302.79 47.9773C301.502 48.3864 300.047 48.5909 298.426 48.5909ZM301.858 41.3182C303.055 41.3182 304.131 41.0758 305.085 40.5909C306.055 40.1061 306.828 39.4394 307.403 38.5909C307.979 37.7273 308.267 36.7273 308.267 35.5909V32.2727C307.949 32.4394 307.563 32.5909 307.108 32.7273C306.669 32.8636 306.184 32.9924 305.653 33.1136C305.123 33.2348 304.578 33.3409 304.017 33.4318C303.456 33.5227 302.919 33.6061 302.403 33.6818C301.358 33.8485 300.464 34.1061 299.722 34.4545C298.994 34.803 298.434 35.2576 298.04 35.8182C297.661 36.3636 297.472 37.0152 297.472 37.7727C297.472 38.9242 297.881 39.803 298.699 40.4091C299.532 41.0152 300.585 41.3182 301.858 41.3182ZM345.79 13.0909V21.2727H323.767V13.0909H345.79ZM328.381 4.72727H339.494V37.0227C339.494 37.7045 339.6 38.2576 339.812 38.6818C340.04 39.0909 340.366 39.3864 340.79 39.5682C341.214 39.7348 341.722 39.8182 342.312 39.8182C342.737 39.8182 343.184 39.7803 343.653 39.7045C344.138 39.6136 344.502 39.5379 344.744 39.4773L346.426 47.5C345.896 47.6515 345.146 47.8409 344.176 48.0682C343.222 48.2955 342.078 48.4394 340.744 48.5C338.138 48.6212 335.903 48.3182 334.04 47.5909C332.191 46.8485 330.775 45.697 329.79 44.1364C328.82 42.5758 328.35 40.6136 328.381 38.25V4.72727ZM367.381 48.6591C363.699 48.6591 360.54 47.9015 357.903 46.3864C355.282 44.8712 353.267 42.7652 351.858 40.0682C350.449 37.3561 349.744 34.2197 349.744 30.6591C349.744 27.0833 350.449 23.947 351.858 21.25C353.282 18.5379 355.305 16.4242 357.926 14.9091C360.563 13.3939 363.706 12.6364 367.358 12.6364C370.585 12.6364 373.396 13.2197 375.79 14.3864C378.199 15.553 380.078 17.2045 381.426 19.3409C382.79 21.4621 383.509 23.9545 383.585 26.8182H373.199C372.987 25.0303 372.381 23.6288 371.381 22.6136C370.396 21.5985 369.108 21.0909 367.517 21.0909C366.229 21.0909 365.1 21.4545 364.131 22.1818C363.161 22.8939 362.403 23.9545 361.858 25.3636C361.328 26.7576 361.062 28.4848 361.062 30.5455C361.062 32.6061 361.328 34.3485 361.858 35.7727C362.403 37.1818 363.161 38.25 364.131 38.9773C365.1 39.6894 366.229 40.0455 367.517 40.0455C368.547 40.0455 369.456 39.8258 370.244 39.3864C371.047 38.947 371.706 38.303 372.222 37.4545C372.737 36.5909 373.062 35.5455 373.199 34.3182H383.585C383.479 37.197 382.759 39.7121 381.426 41.8636C380.108 44.0152 378.252 45.6894 375.858 46.8864C373.479 48.0682 370.653 48.6591 367.381 48.6591ZM400.386 28.0909V48H389.273V1.45454H400.023V19.5H400.409C401.197 17.3485 402.485 15.6667 404.273 14.4545C406.076 13.2424 408.28 12.6364 410.886 12.6364C413.341 12.6364 415.477 13.1818 417.295 14.2727C419.114 15.3485 420.523 16.8712 421.523 18.8409C422.538 20.8106 423.038 23.1136 423.023 25.75V48H411.909V27.9318C411.924 25.9924 411.439 24.4773 410.455 23.3864C409.47 22.2955 408.083 21.75 406.295 21.75C405.129 21.75 404.098 22.0076 403.205 22.5227C402.326 23.0227 401.636 23.7424 401.136 24.6818C400.652 25.6212 400.402 26.7576 400.386 28.0909Z" fill="#E11D48"/>
</svg>
